C:\Users\r0593348\3dpredictsim\Results\Batchsim_tmt_linear\Pog_s1_tmt_aCst_d02_k2000_ig24_act_GRF.mot
nRows=15
nColumns=19

name C:\Users\r0593348\3dpredictsim\Results\Batchsim_tmt_linear\Pog_s1_tmt_aCst_d02_k2000_ig24_act_GRF.mot
datacolumns 19
datarows 15
range 0.0000000000 0.1668841969
endheader
time 	ground_force_vx	ground_force_vy	ground_force_vz	ground_force_px	ground_force_py	ground_force_pz	1_ground_force_vx	1_ground_force_vy	1_ground_force_vz	1_ground_force_px	1_ground_force_py	1_ground_force_pz	ground_torque_x	ground_torque_y	ground_torque_z	1_ground_torque_x	1_ground_torque_y	1_ground_torque_z
        0.0000000000	      -43.2371578685	       30.7311898651	        8.8872768680	        0.1707623219	        0.0000000000	        0.0535359248	      108.2071290437	      438.3959021389	       -1.3646186941	       -0.3490685987	        0.0000000000	       -0.0343424817	        0.0000000000	        0.0000000000	        0.0000000000	        0.0000000000	        0.0000000000	        0.0000000000	
        0.0119202998	     -101.8510937072	       88.4438927823	       27.1803231035	        0.1816422736	        0.0000000000	        0.0512396958	       78.9930517532	      340.6769372562	       -6.7341426079	       -0.3420766001	        0.0000000000	       -0.0316348899	        0.0000000000	        0.0000000000	        0.0000000000	        0.0000000000	        0.0000000000	        0.0000000000	
        0.0238405996	     -103.4718245913	      216.5874212446	       43.6473003718	        0.1887384530	        0.0000000000	        0.0497925956	       45.3208904347	      234.0025191339	      -15.2214640491	       -0.3301537215	        0.0000000000	       -0.0266025041	        0.0000000000	        0.0000000000	        0.0000000000	        0.0000000000	        0.0000000000	        0.0000000000	
        0.0357608993	      -59.9175452752	      430.9277909780	        5.2248089120	        0.1935572342	        0.0000000000	        0.0490075910	       29.4384484399	      176.5041038217	      -17.9728845857	       -0.3218309913	        0.0000000000	       -0.0225838654	        0.0000000000	        0.0000000000	        0.0000000000	        0.0000000000	        0.0000000000	        0.0000000000	
        0.0476811991	      -81.5452111501	      675.5524735496	      -14.2043877629	        0.2031701639	        0.0000000000	        0.0508777483	       27.8342700839	      140.1769140967	      -15.1894048087	       -0.3214478221	        0.0000000000	       -0.0224822695	        0.0000000000	        0.0000000000	        0.0000000000	        0.0000000000	        0.0000000000	        0.0000000000	
        0.0596014989	     -118.6337526028	      853.3698465471	      -21.9077021854	        0.2114994682	        0.0000000000	        0.0527517458	       17.8239894279	       92.0567994243	      -14.1131917552	       -0.3212136813	        0.0000000000	       -0.0226274717	        0.0000000000	        0.0000000000	        0.0000000000	        0.0000000000	        0.0000000000	        0.0000000000	
        0.0715217987	     -132.4894312472	      906.0291850811	      -23.0655832583	        0.2167856790	        0.0000000000	        0.0538223735	        2.5196754845	       36.7420756631	       -8.6989050684	       -0.3216669036	        0.0000000000	       -0.0228380301	        0.0000000000	        0.0000000000	        0.0000000000	        0.0000000000	        0.0000000000	        0.0000000000	
        0.0834420985	     -126.2115892024	      893.6568709135	      -22.0862966705	        0.2207262290	        0.0000000000	        0.0543895336	        0.2767044451	       -0.2816947708	        0.0126781415	        0.0000000000	        0.0000000000	        0.0000000000	        0.0000000000	        0.0000000000	        0.0000000000	        0.0000000000	        0.0000000000	        0.0000000000	
        0.0953623982	     -112.2455624807	      852.4727644510	      -20.9617811565	        0.2248426787	        0.0000000000	        0.0545770058	        0.0022274815	       -0.0018058906	       -0.0001099825	        0.0000000000	        0.0000000000	        0.0000000000	        0.0000000000	        0.0000000000	        0.0000000000	        0.0000000000	        0.0000000000	        0.0000000000	
        0.1072826980	      -98.4704193897	      803.9778465982	      -19.9153508653	        0.2294804703	        0.0000000000	        0.0544858316	        0.0044047128	       -0.0030547111	       -0.0002957833	        0.0000000000	        0.0000000000	        0.0000000000	        0.0000000000	        0.0000000000	        0.0000000000	        0.0000000000	        0.0000000000	        0.0000000000	
        0.1192029978	      -88.3295299487	      764.1963214480	      -19.3741912764	        0.2351084797	        0.0000000000	        0.0541432645	        0.0465464159	       -0.0287317978	       -0.0033738567	        0.0000000000	        0.0000000000	        0.0000000000	        0.0000000000	        0.0000000000	        0.0000000000	        0.0000000000	        0.0000000000	        0.0000000000	
        0.1311232976	      -78.7418445536	      729.4167315256	      -19.5354173389	        0.2408564239	        0.0000000000	        0.0536640111	       -0.3227447069	        0.1827743907	        0.0245415741	        0.0000000000	        0.0000000000	        0.0000000000	        0.0000000000	        0.0000000000	        0.0000000000	        0.0000000000	        0.0000000000	        0.0000000000	
        0.1430435974	      -68.9270366454	      696.7286053877	      -19.5599065592	        0.2461050248	        0.0000000000	        0.0532685570	       -0.2539943935	        0.1353006664	        0.0185966457	        0.0000000000	        0.0000000000	        0.0000000000	        0.0000000000	        0.0000000000	        0.0000000000	        0.0000000000	        0.0000000000	        0.0000000000	
        0.1549638972	      -59.7754381238	      668.9192110063	      -20.0775656842	        0.2510775121	        0.0000000000	        0.0529556246	       -0.1546754566	        0.0784212512	        0.0112792043	        0.0000000000	        0.0000000000	        0.0000000000	        0.0000000000	        0.0000000000	        0.0000000000	        0.0000000000	        0.0000000000	        0.0000000000	
        0.1668841969	      -51.6298247491	      646.1685769783	      -20.5294546746	        0.2559700800	        0.0000000000	        0.0526994761	       -0.1058390963	        0.0514988400	        0.0077290050	        0.0000000000	        0.0000000000	        0.0000000000	        0.0000000000	        0.0000000000	        0.0000000000	        0.0000000000	        0.0000000000	        0.0000000000	
